<mxfile host="app.diagrams.net" modified="2022-09-07T09:01:00.171Z" agent="5.0 (Windows NT 10.0; Win64; x64) AppleWebKit/537.36 (KHTML, like Gecko) Chrome/104.0.0.0 Safari/537.36" etag="MYayaleWvMmVQ7wzwtv5" version="20.2.7" type="github">
  <diagram id="C5RBs43oDa-KdzZeNtuy" name="Page-1">
    <mxGraphModel dx="2125" dy="683" grid="1" gridSize="10" guides="1" tooltips="1" connect="1" arrows="1" fold="1" page="1" pageScale="1" pageWidth="827" pageHeight="1169" math="0" shadow="0">
      <root>
        <mxCell id="WIyWlLk6GJQsqaUBKTNV-0" />
        <mxCell id="WIyWlLk6GJQsqaUBKTNV-1" parent="WIyWlLk6GJQsqaUBKTNV-0" />
        <mxCell id="WIyWlLk6GJQsqaUBKTNV-3" value="START" style="rounded=1;whiteSpace=wrap;html=1;fontSize=12;glass=0;strokeWidth=1;shadow=0;" parent="WIyWlLk6GJQsqaUBKTNV-1" vertex="1">
          <mxGeometry x="160" y="20" width="120" height="40" as="geometry" />
        </mxCell>
        <mxCell id="Bh-nWVLwaKQK6NmqN_dG-0" value="display logo from art.py" style="shape=parallelogram;perimeter=parallelogramPerimeter;whiteSpace=wrap;html=1;fixedSize=1;" vertex="1" parent="WIyWlLk6GJQsqaUBKTNV-1">
          <mxGeometry x="150" y="210" width="120" height="60" as="geometry" />
        </mxCell>
        <mxCell id="Bh-nWVLwaKQK6NmqN_dG-5" value="no" style="edgeStyle=orthogonalEdgeStyle;rounded=0;orthogonalLoop=1;jettySize=auto;html=1;exitX=1;exitY=0.5;exitDx=0;exitDy=0;entryX=0.5;entryY=0;entryDx=0;entryDy=0;" edge="1" parent="WIyWlLk6GJQsqaUBKTNV-1" source="Bh-nWVLwaKQK6NmqN_dG-3" target="Bh-nWVLwaKQK6NmqN_dG-4">
          <mxGeometry relative="1" as="geometry" />
        </mxCell>
        <mxCell id="Bh-nWVLwaKQK6NmqN_dG-7" value="yes" style="edgeStyle=orthogonalEdgeStyle;rounded=0;orthogonalLoop=1;jettySize=auto;html=1;exitX=0.5;exitY=1;exitDx=0;exitDy=0;" edge="1" parent="WIyWlLk6GJQsqaUBKTNV-1" source="Bh-nWVLwaKQK6NmqN_dG-3">
          <mxGeometry relative="1" as="geometry">
            <mxPoint x="220" y="210" as="targetPoint" />
          </mxGeometry>
        </mxCell>
        <mxCell id="Bh-nWVLwaKQK6NmqN_dG-3" value="ask if player wants to play" style="rhombus;whiteSpace=wrap;html=1;" vertex="1" parent="WIyWlLk6GJQsqaUBKTNV-1">
          <mxGeometry x="180" y="80" width="80" height="80" as="geometry" />
        </mxCell>
        <mxCell id="Bh-nWVLwaKQK6NmqN_dG-4" value="STOP" style="rounded=1;whiteSpace=wrap;html=1;" vertex="1" parent="WIyWlLk6GJQsqaUBKTNV-1">
          <mxGeometry x="650" y="380" width="120" height="60" as="geometry" />
        </mxCell>
        <mxCell id="Bh-nWVLwaKQK6NmqN_dG-8" value="deal user 2 cards, add to sum" style="shape=parallelogram;perimeter=parallelogramPerimeter;whiteSpace=wrap;html=1;fixedSize=1;" vertex="1" parent="WIyWlLk6GJQsqaUBKTNV-1">
          <mxGeometry x="160" y="300" width="120" height="60" as="geometry" />
        </mxCell>
        <mxCell id="Bh-nWVLwaKQK6NmqN_dG-9" value="deal computer&#39;s card" style="shape=parallelogram;perimeter=parallelogramPerimeter;whiteSpace=wrap;html=1;fixedSize=1;" vertex="1" parent="WIyWlLk6GJQsqaUBKTNV-1">
          <mxGeometry x="150" y="390" width="120" height="60" as="geometry" />
        </mxCell>
        <mxCell id="Bh-nWVLwaKQK6NmqN_dG-19" value="yes" style="edgeStyle=orthogonalEdgeStyle;rounded=0;orthogonalLoop=1;jettySize=auto;html=1;exitX=0;exitY=0.5;exitDx=0;exitDy=0;entryX=0.5;entryY=0;entryDx=0;entryDy=0;" edge="1" parent="WIyWlLk6GJQsqaUBKTNV-1" source="Bh-nWVLwaKQK6NmqN_dG-10" target="Bh-nWVLwaKQK6NmqN_dG-11">
          <mxGeometry relative="1" as="geometry" />
        </mxCell>
        <mxCell id="Bh-nWVLwaKQK6NmqN_dG-38" value="no" style="edgeStyle=orthogonalEdgeStyle;rounded=0;orthogonalLoop=1;jettySize=auto;html=1;exitX=1;exitY=0.5;exitDx=0;exitDy=0;entryX=0.5;entryY=0;entryDx=0;entryDy=0;" edge="1" parent="WIyWlLk6GJQsqaUBKTNV-1" source="Bh-nWVLwaKQK6NmqN_dG-10" target="Bh-nWVLwaKQK6NmqN_dG-37">
          <mxGeometry relative="1" as="geometry" />
        </mxCell>
        <mxCell id="Bh-nWVLwaKQK6NmqN_dG-10" value="ask if player wants another card" style="rhombus;whiteSpace=wrap;html=1;" vertex="1" parent="WIyWlLk6GJQsqaUBKTNV-1">
          <mxGeometry x="-20" y="690" width="80" height="80" as="geometry" />
        </mxCell>
        <mxCell id="Bh-nWVLwaKQK6NmqN_dG-32" style="edgeStyle=orthogonalEdgeStyle;rounded=0;orthogonalLoop=1;jettySize=auto;html=1;exitX=0;exitY=0.5;exitDx=0;exitDy=0;entryX=0;entryY=0.5;entryDx=0;entryDy=0;" edge="1" parent="WIyWlLk6GJQsqaUBKTNV-1" source="Bh-nWVLwaKQK6NmqN_dG-11" target="Bh-nWVLwaKQK6NmqN_dG-9">
          <mxGeometry relative="1" as="geometry">
            <mxPoint x="-150" y="410" as="targetPoint" />
            <Array as="points">
              <mxPoint x="-160" y="840" />
              <mxPoint x="-160" y="420" />
            </Array>
          </mxGeometry>
        </mxCell>
        <mxCell id="Bh-nWVLwaKQK6NmqN_dG-11" value="deal another card, add to sum" style="shape=parallelogram;perimeter=parallelogramPerimeter;whiteSpace=wrap;html=1;fixedSize=1;" vertex="1" parent="WIyWlLk6GJQsqaUBKTNV-1">
          <mxGeometry x="-120" y="810" width="120" height="60" as="geometry" />
        </mxCell>
        <mxCell id="Bh-nWVLwaKQK6NmqN_dG-15" value="yes" style="edgeStyle=orthogonalEdgeStyle;rounded=0;orthogonalLoop=1;jettySize=auto;html=1;exitX=0;exitY=0.5;exitDx=0;exitDy=0;entryX=0.5;entryY=0;entryDx=0;entryDy=0;" edge="1" parent="WIyWlLk6GJQsqaUBKTNV-1" source="Bh-nWVLwaKQK6NmqN_dG-14" target="Bh-nWVLwaKQK6NmqN_dG-26">
          <mxGeometry relative="1" as="geometry" />
        </mxCell>
        <mxCell id="Bh-nWVLwaKQK6NmqN_dG-18" value="no" style="edgeStyle=orthogonalEdgeStyle;rounded=0;orthogonalLoop=1;jettySize=auto;html=1;exitX=1;exitY=0.5;exitDx=0;exitDy=0;entryX=0.582;entryY=-0.006;entryDx=0;entryDy=0;entryPerimeter=0;exitPerimeter=0;" edge="1" parent="WIyWlLk6GJQsqaUBKTNV-1" source="Bh-nWVLwaKQK6NmqN_dG-14" target="Bh-nWVLwaKQK6NmqN_dG-17">
          <mxGeometry relative="1" as="geometry">
            <Array as="points">
              <mxPoint x="400" y="520" />
            </Array>
          </mxGeometry>
        </mxCell>
        <mxCell id="Bh-nWVLwaKQK6NmqN_dG-14" value="is user&#39;s score &amp;lt;= 21 ?" style="rhombus;whiteSpace=wrap;html=1;" vertex="1" parent="WIyWlLk6GJQsqaUBKTNV-1">
          <mxGeometry x="170" y="480" width="80" height="80" as="geometry" />
        </mxCell>
        <mxCell id="Bh-nWVLwaKQK6NmqN_dG-16" value="STOP" style="rounded=1;whiteSpace=wrap;html=1;" vertex="1" parent="WIyWlLk6GJQsqaUBKTNV-1">
          <mxGeometry x="330" y="750" width="120" height="60" as="geometry" />
        </mxCell>
        <mxCell id="Bh-nWVLwaKQK6NmqN_dG-17" value="print: You&#39;ve lost" style="shape=parallelogram;perimeter=parallelogramPerimeter;whiteSpace=wrap;html=1;fixedSize=1;" vertex="1" parent="WIyWlLk6GJQsqaUBKTNV-1">
          <mxGeometry x="330" y="640" width="120" height="60" as="geometry" />
        </mxCell>
        <mxCell id="Bh-nWVLwaKQK6NmqN_dG-27" value="yes" style="edgeStyle=orthogonalEdgeStyle;rounded=0;orthogonalLoop=1;jettySize=auto;html=1;exitX=0.5;exitY=1;exitDx=0;exitDy=0;entryX=0.5;entryY=0;entryDx=0;entryDy=0;" edge="1" parent="WIyWlLk6GJQsqaUBKTNV-1" source="Bh-nWVLwaKQK6NmqN_dG-26" target="Bh-nWVLwaKQK6NmqN_dG-10">
          <mxGeometry relative="1" as="geometry" />
        </mxCell>
        <mxCell id="Bh-nWVLwaKQK6NmqN_dG-29" value="no" style="edgeStyle=orthogonalEdgeStyle;rounded=0;orthogonalLoop=1;jettySize=auto;html=1;exitX=1;exitY=0.5;exitDx=0;exitDy=0;" edge="1" parent="WIyWlLk6GJQsqaUBKTNV-1" source="Bh-nWVLwaKQK6NmqN_dG-26" target="Bh-nWVLwaKQK6NmqN_dG-28">
          <mxGeometry relative="1" as="geometry" />
        </mxCell>
        <mxCell id="Bh-nWVLwaKQK6NmqN_dG-26" value="is computer&#39;s score &amp;lt;= 21?&amp;nbsp;" style="rhombus;whiteSpace=wrap;html=1;" vertex="1" parent="WIyWlLk6GJQsqaUBKTNV-1">
          <mxGeometry x="-20" y="550" width="80" height="80" as="geometry" />
        </mxCell>
        <mxCell id="Bh-nWVLwaKQK6NmqN_dG-28" value="print: You&#39;ve won" style="shape=parallelogram;perimeter=parallelogramPerimeter;whiteSpace=wrap;html=1;fixedSize=1;" vertex="1" parent="WIyWlLk6GJQsqaUBKTNV-1">
          <mxGeometry x="230" y="920" width="120" height="60" as="geometry" />
        </mxCell>
        <mxCell id="Bh-nWVLwaKQK6NmqN_dG-41" style="edgeStyle=orthogonalEdgeStyle;rounded=0;orthogonalLoop=1;jettySize=auto;html=1;exitX=0.5;exitY=1;exitDx=0;exitDy=0;entryX=0.5;entryY=0;entryDx=0;entryDy=0;" edge="1" parent="WIyWlLk6GJQsqaUBKTNV-1" source="Bh-nWVLwaKQK6NmqN_dG-37" target="Bh-nWVLwaKQK6NmqN_dG-39">
          <mxGeometry relative="1" as="geometry" />
        </mxCell>
        <mxCell id="Bh-nWVLwaKQK6NmqN_dG-37" value="deal computer&#39;s card" style="shape=parallelogram;perimeter=parallelogramPerimeter;whiteSpace=wrap;html=1;fixedSize=1;" vertex="1" parent="WIyWlLk6GJQsqaUBKTNV-1">
          <mxGeometry x="50" y="860" width="120" height="60" as="geometry" />
        </mxCell>
        <mxCell id="Bh-nWVLwaKQK6NmqN_dG-42" value="yes" style="edgeStyle=orthogonalEdgeStyle;rounded=0;orthogonalLoop=1;jettySize=auto;html=1;exitX=0;exitY=0.5;exitDx=0;exitDy=0;entryX=0;entryY=0.5;entryDx=0;entryDy=0;" edge="1" parent="WIyWlLk6GJQsqaUBKTNV-1" source="Bh-nWVLwaKQK6NmqN_dG-39" target="Bh-nWVLwaKQK6NmqN_dG-37">
          <mxGeometry relative="1" as="geometry">
            <Array as="points">
              <mxPoint y="1030" />
              <mxPoint y="890" />
            </Array>
          </mxGeometry>
        </mxCell>
        <mxCell id="Bh-nWVLwaKQK6NmqN_dG-45" value="no" style="edgeStyle=orthogonalEdgeStyle;rounded=0;orthogonalLoop=1;jettySize=auto;html=1;exitX=0.5;exitY=1;exitDx=0;exitDy=0;entryX=0.5;entryY=0;entryDx=0;entryDy=0;" edge="1" parent="WIyWlLk6GJQsqaUBKTNV-1" source="Bh-nWVLwaKQK6NmqN_dG-39" target="Bh-nWVLwaKQK6NmqN_dG-46">
          <mxGeometry relative="1" as="geometry">
            <mxPoint x="110" y="1160" as="targetPoint" />
          </mxGeometry>
        </mxCell>
        <mxCell id="Bh-nWVLwaKQK6NmqN_dG-39" value="is computer&#39;s score &amp;lt;= 17?&amp;nbsp;" style="rhombus;whiteSpace=wrap;html=1;" vertex="1" parent="WIyWlLk6GJQsqaUBKTNV-1">
          <mxGeometry x="70" y="990" width="80" height="80" as="geometry" />
        </mxCell>
        <mxCell id="Bh-nWVLwaKQK6NmqN_dG-46" value="who is closer to 21, user or computer?&amp;nbsp;" style="rhombus;whiteSpace=wrap;html=1;" vertex="1" parent="WIyWlLk6GJQsqaUBKTNV-1">
          <mxGeometry x="70" y="1130" width="80" height="80" as="geometry" />
        </mxCell>
      </root>
    </mxGraphModel>
  </diagram>
</mxfile>
